<svg xmlns="http://www.w3.org/2000/svg" viewBox="0 0 239.63 38.41"><defs><style>.cls-1{fill:#fffdfe;}.cls-2{fill:#fff;}</style></defs><g id="Layer_2" data-name="Layer 2"><g id="Layer_1-2" data-name="Layer 1"><g id="Layer_2-2" data-name="Layer 2"><g id="Layer_1-2-2" data-name="Layer 1-2"><path class="cls-1" d="M28,.65c-7.77,0-15.83,1.74-24,4A4.16,4.16,0,0,0,1.5,6.36,6.45,6.45,0,0,0,.68,8.77,63.69,63.69,0,0,0,.15,22.36a6.77,6.77,0,0,0,.72,3.21A3.7,3.7,0,0,0,3.43,27c1.41.21,2.82.38,4.23.52l-.31,8.7A1.83,1.83,0,0,0,8,37.87a2.22,2.22,0,0,0,1.22.45,2.49,2.49,0,0,0,2.37-1.26A31.5,31.5,0,0,1,18,28.16a200,200,0,0,0,20.48-.74,5.23,5.23,0,0,0,4.67-3.74c1.36-4.24,1.57-9.46,1.72-14.74a6.79,6.79,0,0,0-2-5.24,10.52,10.52,0,0,0-4-1.69A51.66,51.66,0,0,0,28,.65ZM38.29,4A9.35,9.35,0,0,1,41.6,5.35,4.24,4.24,0,0,1,42.8,9c-.14,5.12-.39,10.1-1.55,13.86a3.39,3.39,0,0,1-3,2.56,196.17,196.17,0,0,1-20.71.74,1,1,0,0,0-.76.3,33.63,33.63,0,0,0-6.92,9.67.38.38,0,0,1-.32.18.14.14,0,0,1-.14-.15l.31-9.43a1,1,0,0,0-.9-1c-1.7-.16-3.38-.37-5.06-.62-.73-.11-1-.31-1.2-.61a5.12,5.12,0,0,1-.36-2.12,62.4,62.4,0,0,1,.49-13.1,5.51,5.51,0,0,1,.54-1.77,2.38,2.38,0,0,1,1.65-.9c8-2.2,15.74-3.84,23.06-3.84A51,51,0,0,1,38.29,4ZM10.81,12a3.5,3.5,0,0,0-.14,4.29,2.86,2.86,0,0,0,2,1.24,3.66,3.66,0,0,0,2.53-.86A3.57,3.57,0,0,0,15.63,12a2.86,2.86,0,0,0-2.22-1.24A3.27,3.27,0,0,0,10.81,12Zm11.85-1a3.24,3.24,0,0,0-2.51,1.61,3.32,3.32,0,0,0-.48,3.24c1,2.2,4.28,2.18,5.6-.06a3.14,3.14,0,0,0,0-3.06A3,3,0,0,0,23.14,11,1.93,1.93,0,0,0,22.66,11Zm9.63.21a3.34,3.34,0,0,0-1,.11A3.16,3.16,0,0,0,29,14.73a3.26,3.26,0,0,0,3.49,3,4.17,4.17,0,0,0,.6-.1,3.1,3.1,0,0,0,2.32-2.27A3.21,3.21,0,0,0,35,12.57a3.45,3.45,0,0,0-2.72-1.38Zm-19,1.62a.71.71,0,0,1,.64.36,1.65,1.65,0,0,1-.13,2,1.21,1.21,0,0,1-.92.4.91.91,0,0,1-.57-.42,1.45,1.45,0,0,1,.25-2,1.42,1.42,0,0,1,.75-.3Zm9.49.22a1.79,1.79,0,0,1,.67.64,1,1,0,0,1,0,1.06,1.23,1.23,0,0,1-1.65.55,1.14,1.14,0,0,1-.35-.26,1.93,1.93,0,0,1,.32-1.32,1.24,1.24,0,0,1,1-.67Zm10.56.75a2,2,0,0,1,.1,1.08,1,1,0,0,1-.78.81,1.32,1.32,0,0,1-1.2-.2,1.39,1.39,0,0,1-.46-.93c-.09-.92.24-1.13.77-1.27a1.56,1.56,0,0,1,1.6.48Z"/><path class="cls-2" d="M57.64,4.77a1.08,1.08,0,0,1,.29-.7.85.85,0,0,1,.7-.31h6.82a1.22,1.22,0,0,1,.72.28.9.9,0,0,1,.36.73V15.66H78V4.77a1,1,0,0,1,1-1.06h6.73a1.41,1.41,0,0,1,.81.23.85.85,0,0,1,.34.74V36.87a1,1,0,0,1-.3.76,1.23,1.23,0,0,1-.78.25H79a1.1,1.1,0,0,1-.75-.25,1,1,0,0,1-.28-.76v-13H66.53v13a1,1,0,0,1-.31.75,1.27,1.27,0,0,1-.84.26H58.63c-.64,0-1-.3-1-.89Zm62.88,32.72a1.49,1.49,0,0,1-.64.32,2.7,2.7,0,0,1-.63.07h-3.47a1.71,1.71,0,0,1-.71-.15,1.44,1.44,0,0,1-.51-.4,2.39,2.39,0,0,1-.34-.57,4.08,4.08,0,0,1-.23-.67l-.71-2.94a14.09,14.09,0,0,1-1,1.62,9.27,9.27,0,0,1-1.67,1.7,9.47,9.47,0,0,1-2.41,1.33,9.12,9.12,0,0,1-3.22.54,11.12,11.12,0,0,1-4.76-1,10.73,10.73,0,0,1-3.64-2.76,12.47,12.47,0,0,1-2.33-4.08,14.46,14.46,0,0,1-.83-5v-15a1.91,1.91,0,0,1,.38-1.33A1.51,1.51,0,0,1,95,8.7h5.31A2,2,0,0,1,101.7,9a1.73,1.73,0,0,1,.37,1.3v15a3.94,3.94,0,0,0,.45,1.87,5.27,5.27,0,0,0,1.18,1.56,5.42,5.42,0,0,0,1.67,1.07,4.88,4.88,0,0,0,1.89.39,4.28,4.28,0,0,0,1.72-.39,6.5,6.5,0,0,0,1.63-1,6.14,6.14,0,0,0,1.23-1.54,4.06,4.06,0,0,0,.48-1.87v-15a2.08,2.08,0,0,1,.15-.78,1.22,1.22,0,0,1,.45-.6,1.88,1.88,0,0,1,.56-.25,2,2,0,0,1,.61-.07h5.19a1.84,1.84,0,0,1,1.43.48,1.88,1.88,0,0,1,.43,1.29V36.18A1.89,1.89,0,0,1,121,37a1.64,1.64,0,0,1-.54.57Zm26.68-3.17c-.42.41-.87.86-1.37,1.33A16.2,16.2,0,0,1,144.19,37a10.4,10.4,0,0,1-1.93,1,6.11,6.11,0,0,1-2.23.4,14,14,0,0,1-5.76-1.17A13.76,13.76,0,0,1,129.74,34a14.61,14.61,0,0,1-3-4.79,16,16,0,0,1-1.07-5.93,16.06,16.06,0,0,1,1.07-5.94,14.74,14.74,0,0,1,3-4.78,13.5,13.5,0,0,1,4.53-3.19A13.93,13.93,0,0,1,140,8.24a7,7,0,0,1,2.31.36,8.24,8.24,0,0,1,1.9,1,10.31,10.31,0,0,1,1.59,1.29c.48.49.94,1,1.37,1.42V1.76a1.76,1.76,0,0,1,.43-1.24A1.69,1.69,0,0,1,149,0h5.17a1.55,1.55,0,0,1,.63.13,2.19,2.19,0,0,1,.61.35,2.41,2.41,0,0,1,.45.55,1.62,1.62,0,0,1,.17.72V36.11q0,1.77-1.86,1.77h-4.5a1.94,1.94,0,0,1-.72-.11,1.17,1.17,0,0,1-.42-.34,1.77,1.77,0,0,1-.31-.55c-.11-.26-.23-.51-.35-.77l-.66-1.79ZM134,23.32a8.07,8.07,0,0,0,.47,2.84,6.73,6.73,0,0,0,1.35,2.29A6.09,6.09,0,0,0,137.9,30a6.36,6.36,0,0,0,2.72.57,7.53,7.53,0,0,0,2.77-.53,7.36,7.36,0,0,0,2.27-1.46,7.51,7.51,0,0,0,1.55-2.19,7.33,7.33,0,0,0,.65-2.72v-.33a7.37,7.37,0,0,0-4.37-6.74,7,7,0,0,0-2.87-.59,6.23,6.23,0,0,0-2.72.59,6.32,6.32,0,0,0-2.1,1.59,7.17,7.17,0,0,0-1.35,2.35,8.36,8.36,0,0,0-.47,2.8Zm48.72,11c-.41.41-.87.86-1.37,1.33A13.3,13.3,0,0,1,179.69,37a10.4,10.4,0,0,1-1.93,1,6.11,6.11,0,0,1-2.23.4,14,14,0,0,1-5.75-1.17A13.47,13.47,0,0,1,165.25,34a14.78,14.78,0,0,1-3-4.79,16,16,0,0,1-1.07-5.93,16.06,16.06,0,0,1,1.07-5.94,14.74,14.74,0,0,1,3-4.78,13.36,13.36,0,0,1,4.53-3.19,14,14,0,0,1,5.75-1.16,7,7,0,0,1,2.31.36,9.2,9.2,0,0,1,1.91.95,11.42,11.42,0,0,1,1.58,1.29c.49.49.94,1,1.37,1.42V1.76a1.72,1.72,0,0,1,.45-1.24A1.67,1.67,0,0,1,184.49,0h5.17a1.83,1.83,0,0,1,.64.13,2.19,2.19,0,0,1,.61.35,2.17,2.17,0,0,1,.44.55,1.51,1.51,0,0,1,.18.72V36.11c0,1.18-.62,1.77-1.87,1.77h-4.5a1.86,1.86,0,0,1-.71-.11,1.2,1.2,0,0,1-.43-.34,2.15,2.15,0,0,1-.31-.55c-.1-.26-.22-.51-.34-.77Zm-13.21-11a8.07,8.07,0,0,0,.47,2.84,6.71,6.71,0,0,0,1.34,2.29A6.27,6.27,0,0,0,173.41,30a6.36,6.36,0,0,0,2.72.57,7.57,7.57,0,0,0,2.77-.53,7.13,7.13,0,0,0,2.26-1.46,7.33,7.33,0,0,0,1.55-2.19,7.54,7.54,0,0,0,.66-2.72v-.37a7.67,7.67,0,0,0-.55-2.8,7.81,7.81,0,0,0-1.53-2.35,7.46,7.46,0,0,0-2.3-1.59,6.92,6.92,0,0,0-2.86-.59,6.23,6.23,0,0,0-2.72.59,6.36,6.36,0,0,0-2.11,1.59A7.14,7.14,0,0,0,170,20.51a8.11,8.11,0,0,0-.47,2.8ZM197.64,1.78A2,2,0,0,1,198,.54,1.41,1.41,0,0,1,199.27,0h5.63a1,1,0,0,1,.48.13,1.68,1.68,0,0,1,.48.36,2.27,2.27,0,0,1,.36.55,1.71,1.71,0,0,1,.15.71V36.11a1.74,1.74,0,0,1-.49,1.32,1.85,1.85,0,0,1-1.28.45h-5.33a1.54,1.54,0,0,1-1.26-.45,2,2,0,0,1-.37-1.32Zm38.7,32.61a15.69,15.69,0,0,1-4.55,2.91,14,14,0,0,1-5.35,1A15.62,15.62,0,0,1,215.57,34a15.27,15.27,0,0,1-3.36-4.79,14.28,14.28,0,0,1-1.24-6,15.26,15.26,0,0,1,.49-3.92,14.69,14.69,0,0,1,1.41-3.55,14.39,14.39,0,0,1,2.2-3A13.65,13.65,0,0,1,218,10.37a14.22,14.22,0,0,1,11.17-1.59,14.4,14.4,0,0,1,3.36,1.43,14.82,14.82,0,0,1,5.14,5,13.84,13.84,0,0,1,1.46,3.26,13.13,13.13,0,0,1,.52,3.58V24a2.33,2.33,0,0,1-.35,1.21,1.75,1.75,0,0,1-1.07.62A10.88,10.88,0,0,1,236,26H219.43a5.64,5.64,0,0,0,.93,2.46A5.7,5.7,0,0,0,222,30a6.4,6.4,0,0,0,2,.84,7.89,7.89,0,0,0,2,.25,8.83,8.83,0,0,0,1.7-.17,12.83,12.83,0,0,0,1.69-.46,9.55,9.55,0,0,0,1.5-.67,5.22,5.22,0,0,0,1.09-.79,3.59,3.59,0,0,1,.63-.45,1.09,1.09,0,0,1,.56-.15,1,1,0,0,1,.61.21,4.94,4.94,0,0,1,.7.6L236.8,32a1.55,1.55,0,0,1,.32.54,2,2,0,0,1,.07.49,1.33,1.33,0,0,1-.25.79,3.35,3.35,0,0,1-.6.59ZM225.29,15.25a4.51,4.51,0,0,0-1.74.35,6.16,6.16,0,0,0-1.57,1A7.66,7.66,0,0,0,220.66,18a7.82,7.82,0,0,0-1,1.54h11.78a12.49,12.49,0,0,0-1-1.65,7.44,7.44,0,0,0-1.29-1.34,5.62,5.62,0,0,0-1.65-.89A6.44,6.44,0,0,0,225.29,15.25Z"/></g></g></g></g></svg>